<?xml version="1.0" encoding="utf-8"?>
<!-- Generator: Adobe Illustrator 26.0.3, SVG Export Plug-In . SVG Version: 6.00 Build 0)  -->
<svg version="1.1" id="レイヤー_1" xmlns="http://www.w3.org/2000/svg" xmlns:xlink="http://www.w3.org/1999/xlink" x="0px"
	 y="0px" viewBox="0 0 113.4 113.4" style="enable-background:new 0 0 113.4 113.4;" xml:space="preserve">
<style type="text/css">
	.st0{fill:none;}
	.st1{fill:#004BB1;}
</style>
<g id="レイヤー_2_00000036241724179224945350000010934978912121683088_">
	<g id="waku">
		<rect class="st0" width="113.4" height="113.4"/>
	</g>
	<g id="編集モード">
		<path class="st1" d="M84.4,92.3c3.9-1.9,6.3-5.8,6.3-10.2V25.5c0-6.3-5.1-11.3-11.3-11.3c0,0,0,0,0,0H34
			c-6.2,0-11.3,5.1-11.3,11.3v56.7c0,4.3,2.4,8.2,6.3,10.2l-6.3,9.7H33l5.5-8.5h36.5l5.5,8.5h10.3L84.4,92.3z M36.9,22.7h39.7v5.7
			H36.9V22.7z M79.4,36.8c1.6,0,2.8,1.3,2.8,2.8v0v19.8c0,1.6-1.3,2.8-2.8,2.8l0,0H34c-1.6,0-2.8-1.3-2.8-2.8l0,0V39.7
			c0-1.6,1.3-2.8,2.8-2.8l0,0H79.4z M36.9,82.2c-3.1,0-5.7-2.5-5.6-5.7c0-3.1,2.5-5.7,5.7-5.6c3.1,0,5.6,2.5,5.6,5.6
			C42.5,79.7,40,82.2,36.9,82.2z M70.9,76.5c0-3.1,2.5-5.7,5.7-5.7s5.7,2.5,5.7,5.7c0,2.8-2,5.2-4.8,5.6c-3.1,0.5-6-1.6-6.4-4.7
			C70.9,77.2,70.9,76.8,70.9,76.5z"/>
	</g>
</g>
</svg>
