<svg id="レイヤー_1" data-name="レイヤー 1" xmlns="http://www.w3.org/2000/svg" viewBox="0 0 422.62 355.43"><defs><style>.cls-1{fill:#f1c21b;}.cls-2,.cls-3{fill:#fff;}.cls-3{font-size:42.31px;font-family:TsukuARdGothic-Bold-83pv-RKSJ-H, Tsukushi A Round Gothic;letter-spacing:0.05em;}</style></defs><path class="cls-1" d="M726.34,190.76c38.2,7.36,75.57,33.55,89.76,69s5.45,79.93-9.28,117.85c-14.46,37.92-34.92,69.29-61.11,91.11-25.91,21.83-57.56,34.38-91.66,49.66s-70.65,33-96.84,22.37c-26.47-10.92-42.29-50.47-72-80.21-29.74-30-73.39-50.19-82.66-78.84-9-28.37,16.37-65.2,44.19-90.3,27.83-25.37,57.84-39,85.39-51.28s52.38-22.92,84.57-34.1C648.87,195.12,688.15,183.67,726.34,190.76Z" transform="translate(-400.68 -188.57)"/><path class="cls-2" d="M421.64,378c1.1.67,2.19,1.32,3.34,1.91-2.87,2.85-5.83,4.16-7.76,3.07s-2.34-4.3-1.38-8.24C417.71,375.93,419.74,376.87,421.64,378Z" transform="translate(-400.68 -188.57)"/><path class="cls-2" d="M423.11,374.82c-1.22-.58-2.4-1.21-3.59-1.83-.9-.47-1.8-.94-2.65-1.48a29.56,29.56,0,0,1,1.77-3.7c3.77-6.7,9.26-10.77,12.25-9.08s2.36,8.49-1.41,15.19a31.66,31.66,0,0,1-2.21,3.37A19,19,0,0,0,423.11,374.82Z" transform="translate(-400.68 -188.57)"/><path class="cls-2" d="M469.21,346.66c-1.08-.7-2.15-1.4-3.18-2.17-1.3,3.83-1.18,7.07.64,8.32s4.9.22,8-2.37C472.8,349.28,471.07,347.86,469.21,346.66Z" transform="translate(-400.68 -188.57)"/><path class="cls-2" d="M471.43,343.94c1.06.84,2.14,1.62,3.23,2.42.81.6,1.63,1.2,2.49,1.73a31.28,31.28,0,0,0,2.55-3.21c4.36-6.34,5.61-13.05,2.78-15s-8.66,1.6-13,7.93a31,31,0,0,0-2.06,3.47A18.83,18.83,0,0,1,471.43,343.94Z" transform="translate(-400.68 -188.57)"/><path class="cls-2" d="M484.41,296.1c1.11.67,2.2,1.32,3.34,1.91-2.87,2.85-5.83,4.16-7.75,3.07s-2.34-4.3-1.39-8.24C480.48,294,482.52,295,484.41,296.1Z" transform="translate(-400.68 -188.57)"/><path class="cls-2" d="M485.88,292.92c-1.21-.59-2.39-1.22-3.59-1.84-.9-.47-1.79-.94-2.65-1.48a31,31,0,0,1,1.77-3.7c3.78-6.7,9.27-10.77,12.26-9.08s2.36,8.49-1.42,15.19a28.85,28.85,0,0,1-2.21,3.37A18.53,18.53,0,0,0,485.88,292.92Z" transform="translate(-400.68 -188.57)"/><path class="cls-2" d="M540.38,257.26c-1.09-.7-2.15-1.39-3.18-2.17-1.3,3.84-1.18,7.07.64,8.32s4.89.22,8-2.37C544,259.88,542.23,258.46,540.38,257.26Z" transform="translate(-400.68 -188.57)"/><path class="cls-2" d="M542.59,254.54c1.06.84,2.15,1.62,3.23,2.42.81.6,1.63,1.2,2.49,1.73a30.23,30.23,0,0,0,2.55-3.21c4.37-6.33,5.61-13,2.78-15s-8.66,1.61-13,7.94a30.2,30.2,0,0,0-2.07,3.47A18.42,18.42,0,0,1,542.59,254.54Z" transform="translate(-400.68 -188.57)"/><text class="cls-3" transform="translate(141.62 171.62)">ヨリミチ<tspan x="0" y="50.78">やまぐち</tspan></text><path class="cls-2" d="M725,471.17c0,1.29-.07,2.56-.19,3.84,3.95-.89,6.65-2.68,6.77-4.89s-2.37-4.29-6.21-5.6C725.4,466.73,725.09,469,725,471.17Z" transform="translate(-400.68 -188.57)"/><path class="cls-2" d="M721.56,470.69c.16-1.34.26-2.67.38-4,.09-1,.17-2,.18-3a30.34,30.34,0,0,0-4.08-.5c-7.68-.42-14,2-14.24,5.45s5.88,6.55,13.56,7a28.46,28.46,0,0,0,4-.05A18.18,18.18,0,0,1,721.56,470.69Z" transform="translate(-400.68 -188.57)"/><path class="cls-2" d="M676,494.44c0-1.29,0-2.56-.11-3.85,3.93,1,6.59,2.81,6.67,5s-2.46,4.24-6.32,5.48C676.29,498.88,676,496.65,676,494.44Z" transform="translate(-400.68 -188.57)"/><path class="cls-2" d="M672.53,494.85c.14,1.34.21,2.68.3,4,.07,1,.13,2,.12,3a30.42,30.42,0,0,1-4.08.42c-7.68.28-14-2.29-14.14-5.72s6-6.44,13.7-6.71a31.25,31.25,0,0,1,4,.12A18.67,18.67,0,0,0,672.53,494.85Z" transform="translate(-400.68 -188.57)"/><path class="cls-2" d="M625.22,480.06c0,1.29-.07,2.56-.19,3.85,3.94-.89,6.64-2.68,6.76-4.89s-2.37-4.29-6.21-5.6C625.58,475.63,625.27,477.85,625.22,480.06Z" transform="translate(-400.68 -188.57)"/><path class="cls-2" d="M621.74,479.59c.16-1.34.26-2.67.38-4,.09-1,.17-2,.18-3a28.66,28.66,0,0,0-4.07-.5c-7.68-.42-14.06,2-14.25,5.45s5.89,6.55,13.57,7a29.86,29.86,0,0,0,4-.05A18.6,18.6,0,0,1,621.74,479.59Z" transform="translate(-400.68 -188.57)"/><path class="cls-2" d="M576.45,498.48c0-1.29,0-2.56-.12-3.84,3.93,1,6.59,2.8,6.67,5s-2.45,4.24-6.31,5.48C576.72,502.92,576.46,500.69,576.45,498.48Z" transform="translate(-400.68 -188.57)"/><path class="cls-2" d="M573,498.89c.14,1.34.21,2.68.31,4,.07,1,.13,2,.12,3a30.74,30.74,0,0,1-4.09.42c-7.68.28-14-2.28-14.13-5.72s6-6.44,13.69-6.71a31.25,31.25,0,0,1,4,.12A19.12,19.12,0,0,0,573,498.89Z" transform="translate(-400.68 -188.57)"/><path class="cls-2" d="M528.19,478.67c0,1.29-.07,2.56-.19,3.84,3.94-.88,6.64-2.67,6.76-4.88s-2.37-4.29-6.2-5.6C528.55,474.24,528.25,476.46,528.19,478.67Z" transform="translate(-400.68 -188.57)"/><path class="cls-2" d="M524.71,478.2c.17-1.34.26-2.68.38-4,.09-1,.17-2,.18-3a30.16,30.16,0,0,0-4.07-.51c-7.68-.42-14.06,2-14.25,5.46s5.89,6.55,13.57,7a29.86,29.86,0,0,0,4-.05A19,19,0,0,1,524.71,478.2Z" transform="translate(-400.68 -188.57)"/><path class="cls-2" d="M634.21,212.72c.79-1,1.57-2,2.42-3-3.71-1.61-6.94-1.76-8.34,0s-.62,4.86,1.7,8.18C631.3,216.09,632.86,214.47,634.21,212.72Z" transform="translate(-400.68 -188.57)"/><path class="cls-2" d="M636.74,215.16c-.92,1-1.79,2-2.68,3-.67.76-1.33,1.53-1.93,2.34a30,30,0,0,0,3,2.81c6,4.87,12.55,6.66,14.72,4s-.88-8.76-6.84-13.63a29.29,29.29,0,0,0-3.28-2.34A19,19,0,0,1,636.74,215.16Z" transform="translate(-400.68 -188.57)"/><path class="cls-2" d="M690.63,225.34c-.76,1-1.5,2.08-2.18,3.17-2.6-3.1-3.66-6.15-2.42-8s4.48-2,8.33-.71C693,221.59,691.92,223.54,690.63,225.34Z" transform="translate(-400.68 -188.57)"/><path class="cls-2" d="M693.68,227.06c.68-1.16,1.41-2.28,2.13-3.42.54-.86,1.08-1.71,1.69-2.52a30.23,30.23,0,0,1,3.54,2.06c6.37,4.32,10,10.12,8,13s-8.65,1.65-15-2.66a32,32,0,0,1-3.19-2.48A18.49,18.49,0,0,0,693.68,227.06Z" transform="translate(-400.68 -188.57)"/><path class="cls-2" d="M713.88,270.4c.79-1,1.57-2,2.42-3-3.71-1.61-6.94-1.76-8.35-.05s-.61,4.87,1.71,8.19C711,273.76,712.53,272.15,713.88,270.4Z" transform="translate(-400.68 -188.57)"/><path class="cls-2" d="M716.41,272.83c-.92,1-1.79,2-2.68,3-.67.76-1.33,1.53-1.93,2.34a31.15,31.15,0,0,0,3,2.81c6,4.87,12.55,6.66,14.72,4s-.88-8.77-6.84-13.64a32.11,32.11,0,0,0-3.28-2.34A18.72,18.72,0,0,1,716.41,272.83Z" transform="translate(-400.68 -188.57)"/><path class="cls-2" d="M768.46,298c-.75,1.05-1.49,2.08-2.17,3.18-2.6-3.1-3.67-6.16-2.43-8s4.48-2,8.33-.7C770.86,294.22,769.76,296.17,768.46,298Z" transform="translate(-400.68 -188.57)"/><path class="cls-2" d="M771.52,299.69c.68-1.16,1.41-2.29,2.12-3.43.54-.85,1.09-1.71,1.69-2.51a28.25,28.25,0,0,1,3.55,2.06c6.37,4.31,10,10.12,8,13s-8.65,1.66-15-2.66a29.16,29.16,0,0,1-3.18-2.48A18.79,18.79,0,0,0,771.52,299.69Z" transform="translate(-400.68 -188.57)"/><path class="cls-2" d="M787.34,346.64c.79-1,1.57-2,2.42-3-3.71-1.61-6.94-1.75-8.35,0s-.61,4.86,1.71,8.18C784.43,350,786,348.39,787.34,346.64Z" transform="translate(-400.68 -188.57)"/><path class="cls-2" d="M789.87,349.08c-.92,1-1.79,2-2.68,3-.67.77-1.33,1.53-1.93,2.34a30,30,0,0,0,3,2.81c6,4.87,12.55,6.66,14.72,4s-.88-8.76-6.84-13.63a29.29,29.29,0,0,0-3.28-2.34A19,19,0,0,1,789.87,349.08Z" transform="translate(-400.68 -188.57)"/></svg>